<svg width="626" height="355" viewBox="0 0 626 355" fill="none" xmlns="http://www.w3.org/2000/svg">
<g clip-path="url(#clip0_3397_10)">
<path opacity="0.1" d="M619.364 328.837C616.935 335.058 613.944 341.026 610.432 346.663C608.784 349.351 606.977 351.93 605.021 354.384C605.003 354.409 604.983 354.432 604.961 354.452H0L0.081652 354.384C0.626 353.944 3.82132 351.261 8.79122 346.663C12.3567 343.37 16.8312 339.088 21.8556 333.937C62.9484 291.998 141.884 192.728 76.1434 101.789C15.0294 17.2497 80.8302 1.9087 124.237 0.118163C140.914 -0.559757 157.551 2.26243 173.152 8.41563C193.205 16.3234 229.856 28.4448 277.607 34.0028C279.174 34.1835 280.753 34.3643 282.353 34.5281C307.634 37.199 333.085 37.6789 358.442 35.9628C359.188 35.9176 359.939 35.8611 360.696 35.8046C385.78 33.9769 410.675 29.9809 435.119 23.8583C436.703 23.4573 438.265 23.0788 439.822 22.7004C521.273 3.14569 596.36 69.7909 577.586 145.106C570.645 172.964 572.409 202.658 595.549 226.68C633.436 265.891 628.847 304.509 619.364 328.837Z" fill="black"/>
<path d="M619.364 328.838C616.935 335.059 613.944 341.028 610.432 346.664C608.784 349.352 606.977 351.931 605.021 354.386H0.081543C0.625891 353.945 3.82121 351.262 8.79111 346.664C12.3566 343.371 16.8311 339.09 21.8555 333.939L85.6149 320.269C86.4388 320.093 87.2777 320.004 88.1189 320.004L156.092 319.902H156.162L189.83 319.857H189.907L218.321 319.823H236.922H255.974L334.044 319.71H334.17H340.217H350.843H364.109H367.636L381.043 319.552H385.474L424.471 319.496H436.926H442.914L487.959 319.433H501.371L544.037 319.371L580.051 319.326C581.054 319.327 582.054 319.45 583.029 319.693L619.364 328.838Z" fill="#454B69"/>
<path opacity="0.4" d="M8.79111 346.664H610.432C608.784 349.352 606.977 351.931 605.021 354.385H0.081543C0.615004 353.917 3.81033 351.234 8.79111 346.664Z" fill="black"/>
<path d="M399.127 171L397.919 171.243L343.288 182.133C327.42 185.296 311.324 188.476 295.206 187.261C283.53 186.38 272.621 182.788 261.402 179.636C255.06 177.851 248.337 177.139 246.187 169.774C243.221 159.607 248.049 144.554 249.187 134.251C250.275 124.141 250.918 113.776 248.98 103.784C248.549 101.539 247.982 99.3238 247.281 97.1528C245.338 91.1712 242.284 84.9523 243.934 78.8803C245.235 74.0622 249.203 70.6224 252.915 67.4367C260.188 61.2235 267.613 54.259 270.498 44.9449C271.913 40.4262 272.18 35.5629 273.704 31.0781C276.595 22.549 283.856 16.172 291.934 12.7943C300.012 9.41656 308.896 8.69922 317.611 8.69922C325.306 8.69966 332.993 9.22989 340.621 10.2864C348.938 11.4161 357.332 13.2744 364.643 17.5559C371.953 21.8373 378.115 28.8526 379.819 37.4043C382.231 49.4974 375.535 62.3758 379.128 74.1187C380.935 80.0552 385.116 84.8506 388.017 90.2844C390.383 94.8297 391.843 99.8225 392.311 104.966C392.778 110.109 392.244 115.297 390.739 120.221C387.266 131.388 378.763 142.684 383.118 153.512C385.889 160.398 392.965 164.075 397.897 169.531C398.336 170.021 398.746 170.51 399.127 171Z" fill="#454B69"/>
<path opacity="0.1" d="M397.919 169.576V171.242L343.288 182.132C327.42 185.295 311.324 188.475 295.206 187.261C283.529 186.38 272.621 182.788 261.402 179.636C255.06 177.851 248.337 177.139 246.187 169.774C243.22 159.607 248.049 144.554 249.186 134.251C250.275 124.14 267.036 87.2283 265.098 77.2363L365.258 81.755C365.933 87.2735 392.404 114.973 390.755 120.266C387.282 131.433 378.779 142.729 383.134 153.557C385.91 160.443 392.987 164.12 397.919 169.576Z" fill="black"/>
<path d="M295.581 141.628C296.175 145.125 296.49 148.971 294.77 152.021C292.479 156.111 287.481 157.416 283.012 158.342L267.498 161.562C266.442 161.782 265.321 162.03 264.532 162.782C263.601 163.646 263.285 165.013 263.149 166.301C262.523 172.13 264.51 177.874 266.323 183.426C269.986 194.672 273.062 206.155 277.694 217.006C282.326 227.857 288.684 238.216 297.759 245.468C306.833 252.721 318.841 256.584 329.951 253.749C339.63 251.28 347.566 244.192 354.409 236.674C360.054 230.46 365.334 223.682 368.072 215.622C369.961 210.087 370.576 204.19 371.169 198.349C372.088 189.395 373.006 180.44 373.924 171.486C374.354 167.283 374.637 162.556 372.008 159.33C370.854 157.913 369.286 156.969 367.686 156.094C361.73 152.812 355.46 150.101 349.918 146.147C344.377 142.193 339.461 136.748 337.779 129.993C336.772 125.937 336.952 121.52 335.237 117.741C333.321 113.505 329.249 110.636 324.894 109.376C320.54 108.117 315.945 108.286 311.46 108.811C306.974 109.337 289.686 110.681 287.83 115.928C286.834 118.752 290.965 124.813 291.945 127.592C293.558 132.149 294.775 136.847 295.581 141.628Z" fill="#EFB7B9"/>
<path opacity="0.1" d="M295.581 141.628C296.175 145.125 296.49 148.971 294.77 152.021C292.479 156.111 287.481 157.416 283.012 158.342L267.498 161.562C266.442 161.782 265.321 162.03 264.532 162.782C263.601 163.646 263.285 165.013 263.149 166.301C262.523 172.13 264.51 177.874 266.323 183.426C269.986 194.672 273.062 206.155 277.694 217.006C282.326 227.857 288.684 238.216 297.759 245.468C306.833 252.721 318.841 256.584 329.951 253.749C339.63 251.28 347.566 244.192 354.409 236.674C360.054 230.46 365.334 223.682 368.072 215.622C369.961 210.087 370.576 204.19 371.169 198.349C372.088 189.395 373.006 180.44 373.924 171.486C374.354 167.283 374.637 162.556 372.008 159.33C370.854 157.913 369.286 156.969 367.686 156.094C361.73 152.812 355.46 150.101 349.918 146.147C344.377 142.193 339.461 136.748 337.779 129.993C336.772 125.937 336.952 121.52 335.237 117.741C333.321 113.505 329.249 110.636 324.894 109.376C320.54 108.117 315.945 108.286 311.46 108.811C306.974 109.337 289.686 110.681 287.83 115.928C286.834 118.752 290.965 124.813 291.945 127.592C293.558 132.149 294.775 136.847 295.581 141.628Z" fill="black"/>
<path d="M332.918 203.048L342.014 183.064C346.276 173.699 350.631 163.86 350.179 153.517C350.092 151.461 350.07 148.891 351.812 147.959C352.568 147.639 353.392 147.53 354.202 147.643C363.778 148.151 373.228 150.135 382.241 153.529C383.988 154.184 385.779 154.941 387.004 156.387C388.229 157.833 388.724 159.776 389.143 161.64C390.571 167.942 391.613 174.332 392.262 180.771C393.895 196.71 393.084 212.791 392.262 228.782L389.846 277.601C389.859 278.293 389.723 278.98 389.448 279.612C388.849 280.741 387.499 281.12 386.286 281.334C381.61 282.165 376.83 281.995 372.094 281.809C338.78 280.498 305.292 278.488 272.196 282.679C272.344 277.599 272.266 272.515 271.962 267.428C270.65 245.462 265.163 224.032 259.774 202.749C256.633 190.322 253.59 176.766 258.647 165.057C259.39 163.208 260.459 161.518 261.799 160.075C263.949 157.889 266.883 156.737 269.79 155.912C274.804 154.497 279.997 153.887 285.189 154.105L319.51 231.64C321.078 235.187 322.368 238.921 323.93 242.423C325.335 236.373 323.647 229.285 325.335 222.727C327.153 215.921 330.016 209.408 332.918 203.048Z" fill="white"/>
<path d="M329.331 256.397C335.471 256.798 341.437 253.533 345.661 248.918C349.886 244.304 352.673 238.452 355.03 232.538C358.418 224.108 361.111 215.396 363.081 206.494C364.714 198.925 365.873 191.09 364.746 183.42C363.189 172.829 357.414 163.204 356.429 152.54C356.26 150.676 356.369 148.496 357.811 147.372C358.704 146.677 359.88 146.581 360.99 146.513C371.257 145.881 382.535 145.999 390.488 152.761C392.911 154.817 394.876 157.387 397.244 159.505C402.883 164.588 410.852 167.175 414.472 173.925C415.735 176.275 416.34 178.935 417.221 181.466C419.301 187.453 422.899 192.717 426.475 197.897C423.008 213.08 419.023 228.274 415.556 243.457C413.525 252.364 411.478 261.305 408.289 269.834C406.198 275.426 403.569 281.131 404.211 287.118C404.467 289.474 405.224 291.728 405.883 293.998C408.192 301.968 409.274 310.266 409.089 318.586L253.765 318.981C261.206 307.91 263.389 294.331 262.632 280.86C262.267 274.404 260.863 267.908 257.733 262.322C252.801 253.567 244.124 247.862 235.572 242.976C229.585 239.587 223.156 258.656 216.684 256.47C217.729 248.8 218.208 219.191 217.772 211.47C217.631 208.939 217.413 206.341 218.164 203.924C218.676 202.269 219.618 200.789 220.255 199.179C222.808 192.734 220.374 184.493 224.5 179.009C227.353 175.196 232.355 174.111 236.422 171.762C240.597 169.344 243.825 165.548 247.461 162.306C254.596 156.02 263.314 151.981 272.588 150.665C275.294 155.093 276.938 160.128 277.384 165.351C277.661 168.632 277.46 171.959 277.901 175.224C278.505 179.647 280.269 183.798 282.016 187.888C289.294 204.94 296.599 222.043 305.821 238.057C308.428 242.575 311.264 247.094 315.042 250.613C318.82 254.132 324.258 256.645 329.331 256.397Z" fill="#007FFF"/>
<path opacity="0.1" d="M329.331 256.397C335.471 256.798 341.437 253.533 345.661 248.918C349.886 244.304 352.673 238.452 355.03 232.538C358.418 224.108 361.111 215.396 363.081 206.494C364.714 198.925 365.873 191.09 364.746 183.42C363.189 172.829 357.414 163.204 356.429 152.54C356.26 150.676 356.369 148.496 357.811 147.372C358.704 146.677 359.88 146.581 360.99 146.513C371.257 145.881 382.535 145.999 390.488 152.761C392.911 154.817 394.876 157.387 397.244 159.505C402.883 164.588 410.852 167.175 414.472 173.925C415.735 176.275 416.34 178.935 417.221 181.466C419.301 187.453 422.899 192.717 426.475 197.897C423.008 213.08 419.023 228.274 415.556 243.457C413.525 252.364 411.478 261.305 408.289 269.834C406.198 275.426 403.569 281.131 404.211 287.118C404.467 289.474 405.224 291.728 405.883 293.998C408.192 301.968 409.274 310.266 409.089 318.586L253.765 318.981C261.206 307.91 263.389 294.331 262.632 280.86C262.267 274.404 260.863 267.908 257.733 262.322C252.801 253.567 244.124 247.862 235.572 242.976C229.585 239.587 223.156 258.656 216.684 256.47C217.729 248.8 218.208 219.191 217.772 211.47C217.631 208.939 217.413 206.341 218.164 203.924C218.676 202.269 219.618 200.789 220.255 199.179C222.808 192.734 220.374 184.493 224.5 179.009C227.353 175.196 232.355 174.111 236.422 171.762C240.597 169.344 243.825 165.548 247.461 162.306C254.596 156.02 263.314 151.981 272.588 150.665C275.294 155.093 276.938 160.128 277.384 165.351C277.661 168.632 277.46 171.959 277.901 175.224C278.505 179.647 280.269 183.798 282.016 187.888C289.294 204.94 296.599 222.043 305.821 238.057C308.428 242.575 311.264 247.094 315.042 250.613C318.82 254.132 324.258 256.645 329.331 256.397Z" fill="black"/>
<path d="M321.116 140.346C346.886 140.346 367.777 118.668 367.777 91.9276C367.777 65.1872 346.886 43.5098 321.116 43.5098C295.345 43.5098 274.454 65.1872 274.454 91.9276C274.454 118.668 295.345 140.346 321.116 140.346Z" fill="#EFB7B9"/>
<path d="M296.631 156.449C297.911 143.921 292.892 131.664 287.209 120.531C284.487 115.21 281.569 109.906 280.203 104.06C278.837 98.2141 279.229 91.5942 282.723 86.7875C285.695 82.698 290.41 80.4895 294.77 78.089C307.077 71.3109 318.329 61.3472 323.74 48.0226C320.681 49.751 321.475 54.908 324.175 57.1843C326.875 59.4606 330.555 59.9012 333.876 60.9857C345.982 64.9395 353.244 77.4676 359.068 89.1711C360.021 91.0802 360.99 93.0967 360.979 95.2487C360.968 97.4008 360.021 99.3099 359.03 101.14C356.156 106.449 352.639 111.55 351.333 117.486C349.836 124.264 351.415 131.393 353.467 138.041C355.644 145.113 358.535 152.241 363.76 157.313C368.986 162.385 377.091 164.905 383.52 161.628C377.102 150.179 370.456 137.386 372.96 124.406C374.168 118.192 377.418 112.544 378.801 106.365C381.435 94.5766 377.048 82.4495 372.742 71.1979L359.874 37.6183C357.909 32.4839 355.671 27.005 351.164 24.0961C348.116 22.1361 344.425 21.6278 340.854 21.2719C329.358 20.21 317.447 20.5602 306.745 24.9999C287.247 33.0827 275.021 53.0101 265.321 72.3389C262.414 78.1285 259.545 84.2796 259.665 90.8091C259.73 94.3902 260.694 97.8752 261.477 101.366C264.667 115.577 264.842 130.303 265.005 144.892C265.13 156.087 264.569 166.639 259.85 176.834C266.317 178.167 275.696 181.765 282.097 179.133C290.442 175.71 295.581 165.164 296.631 156.449Z" fill="#454B69"/>
<g opacity="0.1">
<path opacity="0.1" d="M264.977 144.655C264.999 143.062 264.999 141.455 264.977 139.832C264.814 125.242 264.64 110.516 261.45 96.3052C260.737 93.5397 260.181 90.7333 259.784 87.9004C259.672 88.8731 259.623 89.8524 259.637 90.8319C259.702 94.413 260.666 97.898 261.45 101.389C264.623 115.515 264.819 130.15 264.977 144.655Z" fill="black"/>
<path opacity="0.1" d="M378.8 106.364C379.515 103.064 379.753 99.6718 379.508 96.2988C379.401 97.9764 379.164 99.6424 378.8 101.281C377.417 107.494 374.168 113.091 372.959 119.322C372.438 122.07 372.292 124.88 372.524 127.67C372.61 126.574 372.756 125.484 372.959 124.405C374.168 118.175 377.417 112.555 378.8 106.364Z" fill="black"/>
<path opacity="0.1" d="M360.553 92.6568C360.819 91.8545 360.962 91.014 360.978 90.1658C360.978 88.0138 360.02 85.9973 359.067 84.0882C353.243 72.3848 346.003 59.8679 333.875 55.9028C330.554 54.8183 326.88 54.3777 324.175 52.1014C323.478 51.4793 322.909 50.7192 322.499 49.8656C322.09 49.0121 321.849 48.0823 321.79 47.1309C315.89 58.3711 305.754 66.968 294.769 73.0061C290.414 75.4066 285.695 77.6152 282.722 81.7046C279.93 85.5455 279.119 90.5443 279.603 95.3793C279.878 92.2762 280.956 89.3079 282.722 86.7881C285.695 82.6987 290.409 80.4902 294.769 78.0896C305.754 72.0515 315.89 63.4547 321.79 52.2144C321.849 53.1659 322.09 54.0956 322.499 54.9492C322.909 55.8027 323.478 56.5628 324.175 57.185C326.896 59.4443 330.554 59.9018 333.875 60.9863C345.981 64.9402 353.243 77.4683 359.067 89.1717C359.658 90.2872 360.155 91.4531 360.553 92.6568Z" fill="black"/>
<path opacity="0.1" d="M363.76 152.23C358.534 147.147 355.655 140.03 353.466 132.958C352.153 128.985 351.277 124.872 350.854 120.695C350.347 126.496 351.735 132.433 353.466 138.041C355.644 145.113 358.534 152.241 363.76 157.314C368.986 162.386 377.091 164.905 383.52 161.629C382.747 160.257 381.979 158.861 381.217 157.455C375.246 159.2 368.387 156.715 363.76 152.23Z" fill="black"/>
<path opacity="0.1" d="M296.631 151.367C295.58 160.082 290.441 170.628 282.075 174.073C276.266 176.462 267.998 173.717 261.689 172.198C261.146 173.783 260.525 175.339 259.827 176.858C266.294 178.191 275.673 181.789 282.075 179.157C290.441 175.711 295.58 165.166 296.631 156.45C296.847 154.27 296.887 152.074 296.75 149.887C296.718 150.378 296.669 150.875 296.631 151.367Z" fill="black"/>
</g>
<path d="M362.59 291.411C354.18 290.027 345.645 287.355 337.305 289.152C332.472 290.191 328.051 292.688 324.034 295.704C326.244 297.539 328.824 299.178 330.229 301.731C331.101 303.497 331.755 305.37 332.178 307.306C333.059 310.695 333.947 314.151 334.083 317.676C334.219 321.201 333.538 324.872 331.514 327.713C342.117 328.798 352.395 326.086 362.737 323.437C363.92 323.222 365.046 322.75 366.041 322.053C367.675 320.72 368.154 318.348 368.164 316.185C368.164 312.321 367.119 308.554 366.058 304.848C364.795 300.403 363.859 295.828 362.59 291.411Z" fill="white"/>
<path d="M419.376 196.139C423.552 196.704 426.79 200.201 429.175 203.793C435.865 213.791 438.75 225.912 441.961 237.621C445.953 252.183 450.647 266.514 456.044 280.617C457.205 283.873 458.618 287.028 460.268 290.049C461.612 292.382 463.245 294.624 463.839 297.274C465.276 303.679 460.186 309.7 454.879 313.27C452.05 315.248 448.961 316.793 445.706 317.856C442.538 318.839 439.234 319.212 435.952 319.585L405.735 322.974C391.827 324.544 377.794 326.114 363.88 324.6C363.004 321.437 364.724 319.201 364.599 315.908C364.512 313.552 363.51 311.361 362.617 309.192C360.971 305.329 359.883 301.235 359.389 297.042C359.231 295.5 359.177 293.918 358.611 292.484C358.045 291.049 356.831 289.761 355.345 289.66C363.51 288.818 369.71 287.219 377.875 286.372C380.907 286.056 384.059 285.7 386.645 284.028C389.851 281.955 391.647 278.216 393.073 274.59C396.606 265.609 398.882 255.713 397.025 246.201C395.501 238.401 391.25 231.137 391.272 223.178C391.272 218.439 392.829 213.847 394.668 209.509C396.617 204.923 399.159 200.234 403.438 197.907C407.716 195.58 414.548 195.462 419.376 196.139Z" fill="#007FFF"/>
<path opacity="0.08" d="M419.376 196.139C423.552 196.704 426.79 200.201 429.175 203.793C435.865 213.791 438.75 225.912 441.961 237.621C445.953 252.183 450.647 266.514 456.044 280.617C457.205 283.873 458.618 287.028 460.268 290.049C461.612 292.382 463.245 294.624 463.839 297.274C465.276 303.679 460.186 309.7 454.879 313.27C452.05 315.248 448.961 316.793 445.706 317.856C442.538 318.839 439.234 319.212 435.952 319.585L405.735 322.974C391.827 324.544 377.794 326.114 363.88 324.6C363.004 321.437 364.724 319.201 364.599 315.908C364.512 313.552 363.51 311.361 362.617 309.192C360.971 305.329 359.883 301.235 359.389 297.042C359.231 295.5 359.177 293.918 358.611 292.484C358.045 291.049 356.831 289.761 355.345 289.66C363.51 288.818 369.71 287.219 377.875 286.372C380.907 286.056 384.059 285.7 386.645 284.028C389.851 281.955 391.647 278.216 393.073 274.59C396.606 265.609 398.882 255.713 397.025 246.201C395.501 238.401 391.25 231.137 391.272 223.178C391.272 218.439 392.829 213.847 394.668 209.509C396.617 204.923 399.159 200.234 403.438 197.907C407.716 195.58 414.548 195.462 419.376 196.139Z" fill="black"/>
<path d="M230.156 188.803C232.132 183.934 234.141 178.907 234.195 173.626C234.255 167.915 232.018 162.493 230.308 157.07C228.195 150.436 226.787 143.581 226.112 136.629C225.971 135.963 226.068 135.267 226.384 134.669C226.836 134.008 227.706 133.872 228.474 133.697C232.241 132.805 235.088 129.647 237.439 126.467C241.088 121.556 244.168 116.218 246.617 110.562C248.419 106.399 250.858 101.321 255.256 101.281C253.485 109.912 251.29 118.442 248.68 126.84C253.28 125.62 257.651 123.847 262.251 122.626C263.151 122.331 264.094 122.201 265.038 122.242C267.792 122.542 269.48 126.411 267.879 128.755C270.128 131.489 273.867 132.223 276.807 134.098C279.746 135.974 281.858 140.617 279.245 142.972C278.734 143.429 278.086 143.751 277.716 144.339C276.453 146.361 279.545 148.682 279.289 151.077C279.082 153.037 276.66 153.952 274.825 153.433C272.991 152.913 271.559 151.49 269.926 150.445C268.293 149.4 266.159 148.75 264.575 149.835C264.151 155.15 263.693 160.567 261.478 165.407C260.667 167.175 259.627 168.83 258.974 170.666C258.349 172.668 257.962 174.741 257.82 176.84L255.844 195.587C246.416 197.547 237.962 194.615 230.156 188.803Z" fill="#EFB7B9"/>
<path d="M227.853 205.607L226.116 193.412C225.95 192.419 225.858 191.414 225.839 190.407C225.839 187.583 227.036 184.888 228.196 182.318C237.804 186.973 248.19 188.628 258.788 188.633C260.187 188.633 261.782 188.498 262.653 187.362C264.455 189.514 264.509 192.977 263.742 195.711C262.974 198.444 261.499 200.907 260.519 203.573C260.024 204.923 259.621 206.397 258.674 207.437C257.204 209.08 254.82 209.363 252.653 209.351C250.374 209.337 248.101 209.112 245.86 208.679C240.057 207.561 233.656 204.528 227.853 205.607Z" fill="white"/>
<path d="M263.688 205.109C256.23 204.228 248.821 202.985 241.462 201.381C237.853 200.596 234.211 199.72 230.531 199.873C228.136 199.975 225.562 200.472 223.455 199.24C225.507 206.487 225.632 214.124 223.177 221.235C221.724 225.471 219.508 229.42 218.441 233.78C216.221 242.902 219.269 252.849 216.493 261.807C216.199 262.978 215.622 264.051 214.816 264.925C213.967 265.733 212.807 266.151 212.024 267.026C210.87 268.314 210.799 270.252 210.793 272.008L210.744 287.57C210.712 297.477 210.837 307.983 215.878 316.376C221.626 325.979 233.727 330.955 244.26 328.035C247.06 327.291 249.684 325.959 251.968 324.12C255.626 321.104 257.956 316.743 260.236 312.496C262.958 307.412 265.68 302.216 266.556 296.494C267.177 292.444 266.829 288.309 266.382 284.237C263.922 261.643 258.582 239.242 259.73 216.564C259.902 212.418 261.282 208.424 263.688 205.109Z" fill="#007FFF"/>
<path d="M294.857 298.872C291.074 299.098 287.264 299.324 283.497 298.872C280.775 298.533 278.119 297.838 275.419 297.364C268.045 296.128 260.501 296.563 253.305 298.637C246.108 300.712 239.429 304.378 233.727 309.384C231.637 311.236 229.525 314.077 230.679 316.67C231.92 319.46 235.714 319.381 238.637 318.862C235.482 320.425 232.695 322.687 230.472 325.487C229.655 326.521 228.882 327.746 229.04 329.085C229.372 331.881 233.03 332.389 235.736 332.147C234.854 333.129 235.447 334.869 236.569 335.536C237.69 336.202 239.083 336.067 240.352 335.824C243.156 335.291 245.865 334.318 248.386 332.937C247.875 334.321 248.762 335.942 250.019 336.631C251.277 337.32 252.806 337.27 254.216 337.032C260.868 335.903 266.421 331.102 272.909 329.215C283.284 326.204 294.139 331.006 304.922 331.345C308.297 331.452 311.759 331.096 314.835 329.65C318.607 327.871 321.65 324.533 325.635 323.346C330.06 322.036 335.139 323.544 339.189 321.279C342.134 319.635 339.477 306.966 338.726 304.526C337.349 300.064 335.966 297.104 331.378 296.652C319.767 295.472 306.555 298.172 294.857 298.872Z" fill="#EFB7B9"/>
<path d="M323.821 295.415C323.821 295.415 341.398 310.852 331.257 327.696L350.854 320.675V305.938C350.854 305.238 343.412 294.715 343.412 294.715L334.621 293.309L323.821 295.415Z" fill="white"/>
<path d="M139.784 294.461H146.376C149.985 294.461 153.446 295.949 155.998 298.597C158.55 301.245 159.984 304.837 159.984 308.582V329.543H126.175V308.582C126.175 306.727 126.527 304.891 127.211 303.178C127.895 301.465 128.897 299.908 130.161 298.597C131.424 297.286 132.925 296.245 134.576 295.536C136.227 294.826 137.996 294.461 139.784 294.461Z" fill="#3F3D56"/>
<path opacity="0.1" d="M139.784 294.461H146.376C149.985 294.461 153.446 295.949 155.998 298.597C158.55 301.245 159.984 304.837 159.984 308.582V329.543H126.175V308.582C126.175 306.727 126.527 304.891 127.211 303.178C127.895 301.465 128.897 299.908 130.161 298.597C131.424 297.286 132.925 296.245 134.576 295.536C136.227 294.826 137.996 294.461 139.784 294.461Z" fill="#FF9901"/>
<path d="M141.727 302.177C143.221 302.177 144.432 300.92 144.432 299.37C144.432 297.819 143.221 296.562 141.727 296.562C140.233 296.562 139.021 297.819 139.021 299.37C139.021 300.92 140.233 302.177 141.727 302.177Z" fill="#3F3D56"/>
<path d="M141.727 298.669C143.221 298.669 144.432 297.412 144.432 295.862C144.432 294.312 143.221 293.055 141.727 293.055C140.233 293.055 139.021 294.312 139.021 295.862C139.021 297.412 140.233 298.669 141.727 298.669Z" fill="#3F3D56"/>
<path d="M141.727 295.161C143.221 295.161 144.432 293.905 144.432 292.354C144.432 290.804 143.221 289.547 141.727 289.547C140.233 289.547 139.021 290.804 139.021 292.354C139.021 293.905 140.233 295.161 141.727 295.161Z" fill="#3F3D56"/>
<path d="M141.727 291.654C143.221 291.654 144.432 290.397 144.432 288.846C144.432 287.296 143.221 286.039 141.727 286.039C140.233 286.039 139.021 287.296 139.021 288.846C139.021 290.397 140.233 291.654 141.727 291.654Z" fill="#3F3D56"/>
<path d="M141.727 288.146C143.221 288.146 144.432 286.889 144.432 285.339C144.432 283.788 143.221 282.531 141.727 282.531C140.233 282.531 139.021 283.788 139.021 285.339C139.021 286.889 140.233 288.146 141.727 288.146Z" fill="#3F3D56"/>
<path d="M141.727 284.638C143.221 284.638 144.432 283.381 144.432 281.831C144.432 280.28 143.221 279.023 141.727 279.023C140.233 279.023 139.021 280.28 139.021 281.831C139.021 283.381 140.233 284.638 141.727 284.638Z" fill="#3F3D56"/>
<path d="M141.727 281.126C143.221 281.126 144.432 279.869 144.432 278.319C144.432 276.769 143.221 275.512 141.727 275.512C140.233 275.512 139.021 276.769 139.021 278.319C139.021 279.869 140.233 281.126 141.727 281.126Z" fill="#3F3D56"/>
<path d="M145.787 282.532C147.282 282.532 148.493 281.276 148.493 279.725C148.493 278.175 147.282 276.918 145.787 276.918C144.293 276.918 143.082 278.175 143.082 279.725C143.082 281.276 144.293 282.532 145.787 282.532Z" fill="#3F3D56"/>
<path d="M148.493 281.126C149.987 281.126 151.198 279.869 151.198 278.319C151.198 276.769 149.987 275.512 148.493 275.512C146.998 275.512 145.787 276.769 145.787 278.319C145.787 279.869 146.998 281.126 148.493 281.126Z" fill="#3F3D56"/>
<path d="M151.198 279.726C152.692 279.726 153.903 278.469 153.903 276.919C153.903 275.368 152.692 274.111 151.198 274.111C149.703 274.111 148.492 275.368 148.492 276.919C148.492 278.469 149.703 279.726 151.198 279.726Z" fill="#3F3D56"/>
<path d="M141.727 277.618C143.221 277.618 144.432 276.362 144.432 274.811C144.432 273.261 143.221 272.004 141.727 272.004C140.233 272.004 139.021 273.261 139.021 274.811C139.021 276.362 140.233 277.618 141.727 277.618Z" fill="#3F3D56"/>
<path d="M141.727 274.111C143.221 274.111 144.432 272.854 144.432 271.303C144.432 269.753 143.221 268.496 141.727 268.496C140.233 268.496 139.021 269.753 139.021 271.303C139.021 272.854 140.233 274.111 141.727 274.111Z" fill="#3F3D56"/>
<path d="M141.727 270.603C143.221 270.603 144.432 269.346 144.432 267.796C144.432 266.245 143.221 264.988 141.727 264.988C140.233 264.988 139.021 266.245 139.021 267.796C139.021 269.346 140.233 270.603 141.727 270.603Z" fill="#3F3D56"/>
<path d="M141.727 267.095C143.221 267.095 144.432 265.838 144.432 264.288C144.432 262.737 143.221 261.48 141.727 261.48C140.233 261.48 139.021 262.737 139.021 264.288C139.021 265.838 140.233 267.095 141.727 267.095Z" fill="#3F3D56"/>
<path d="M152.962 255.233C152.287 255.335 151.612 255.408 150.937 255.454C151.564 254.886 152.147 254.266 152.679 253.601C152.304 252.421 151.753 251.31 151.046 250.308C150.375 250.699 149.634 250.941 148.868 251.02C148.199 251.121 147.524 251.195 146.849 251.246C147.736 250.494 148.564 249.365 149.434 248.421C147.483 246.586 144.983 245.503 142.353 245.352C139.724 245.202 137.124 245.993 134.99 247.595C132.856 249.196 131.317 251.51 130.632 254.149C129.946 256.787 130.155 259.59 131.223 262.088C132.292 264.586 134.155 266.626 136.501 267.868C138.847 269.11 141.533 269.478 144.109 268.91C146.686 268.341 148.995 266.872 150.651 264.747C152.308 262.622 153.21 259.971 153.207 257.239C153.207 256.551 153.149 255.865 153.033 255.188L152.962 255.233Z" fill="#49B854"/>
<path d="M161.982 269.179C161.292 269.619 160.513 269.888 159.706 269.964C159.037 270.065 158.362 270.145 157.687 270.19C158.404 269.522 159.074 268.801 159.69 268.032C158.059 267.591 156.328 267.797 154.835 268.609C153.343 269.422 152.196 270.783 151.619 272.427C151.042 274.07 151.077 275.878 151.716 277.496C152.355 279.115 153.553 280.428 155.076 281.178C156.599 281.929 158.336 282.063 159.949 281.555C161.562 281.047 162.934 279.932 163.798 278.43C164.661 276.928 164.953 275.146 164.618 273.431C164.282 271.717 163.342 270.195 161.982 269.162V269.179Z" fill="#49B854"/>
<path d="M137.671 282.532C139.165 282.532 140.377 281.276 140.377 279.725C140.377 278.175 139.165 276.918 137.671 276.918C136.177 276.918 134.966 278.175 134.966 279.725C134.966 281.276 136.177 282.532 137.671 282.532Z" fill="#3F3D56"/>
<path d="M134.966 281.126C136.46 281.126 137.672 279.869 137.672 278.319C137.672 276.769 136.46 275.512 134.966 275.512C133.472 275.512 132.261 276.769 132.261 278.319C132.261 279.869 133.472 281.126 134.966 281.126Z" fill="#3F3D56"/>
<path d="M132.26 279.726C133.754 279.726 134.966 278.469 134.966 276.919C134.966 275.368 133.754 274.111 132.26 274.111C130.766 274.111 129.555 275.368 129.555 276.919C129.555 278.469 130.766 279.726 132.26 279.726Z" fill="#3F3D56"/>
<path d="M121.477 269.179C122.167 269.619 122.945 269.888 123.752 269.964C124.422 270.065 125.097 270.145 125.772 270.19C125.053 269.523 124.383 268.802 123.768 268.032C125.399 267.591 127.131 267.797 128.623 268.609C130.116 269.422 131.263 270.783 131.84 272.427C132.416 274.07 132.382 275.878 131.743 277.496C131.103 279.115 129.905 280.428 128.383 281.178C126.86 281.929 125.122 282.063 123.509 281.555C121.896 281.047 120.524 279.932 119.661 278.43C118.797 276.928 118.505 275.146 118.841 273.431C119.177 271.717 120.117 270.195 121.477 269.162V269.179Z" fill="#49B854"/>
<path d="M139.783 296.539H146.375C149.985 296.539 153.446 298.027 155.998 300.675C158.55 303.323 159.984 306.915 159.984 310.66V329.226C159.984 329.861 159.741 330.471 159.308 330.92C158.875 331.369 158.288 331.621 157.676 331.621H128.466C127.854 331.621 127.267 331.369 126.834 330.92C126.401 330.471 126.158 329.861 126.158 329.226V310.66C126.158 308.804 126.511 306.967 127.196 305.252C127.881 303.538 128.884 301.98 130.15 300.669C131.415 299.358 132.917 298.318 134.57 297.609C136.223 296.9 137.995 296.537 139.783 296.539Z" fill="#FF9901"/>
<g opacity="0.1">
<path opacity="0.1" d="M153.147 256.002C152.873 256.306 152.583 256.592 152.276 256.861C152.587 256.861 152.891 256.81 153.202 256.776C153.191 256.516 153.175 256.256 153.147 256.002Z" fill="black"/>
<path opacity="0.1" d="M148.215 252.647C148.895 252.602 149.565 252.528 150.24 252.427C150.845 252.347 151.437 252.18 151.998 251.93C151.723 251.365 151.406 250.823 151.051 250.309C150.712 250.522 150.346 250.684 149.962 250.789C149.428 251.456 148.844 252.077 148.215 252.647Z" fill="black"/>
<path opacity="0.1" d="M131.585 258.673C131.581 256.532 132.134 254.429 133.185 252.586C134.236 250.743 135.746 249.228 137.557 248.201C139.368 247.175 141.413 246.673 143.475 246.751C145.538 246.828 147.542 247.482 149.277 248.642L149.451 248.45C148.319 247.405 146.998 246.602 145.566 246.089C144.134 245.575 142.618 245.361 141.105 245.458C139.593 245.556 138.114 245.963 136.753 246.656C135.393 247.349 134.179 248.314 133.18 249.497C132.18 250.679 131.417 252.055 130.932 253.545C130.448 255.035 130.253 256.609 130.358 258.178C130.462 259.746 130.865 261.278 131.543 262.684C132.221 264.091 133.16 265.344 134.307 266.372C132.546 264.223 131.581 261.494 131.585 258.673Z" fill="black"/>
</g>
<g opacity="0.1">
<path opacity="0.1" d="M157.687 271.591C158.362 271.546 159.037 271.472 159.706 271.371C160.513 271.293 161.292 271.022 161.981 270.58C162.746 271.164 163.383 271.908 163.852 272.765C164.321 273.621 164.611 274.57 164.703 275.55C164.73 275.305 164.742 275.058 164.741 274.81C164.746 273.713 164.503 272.631 164.03 271.649C163.557 270.668 162.868 269.816 162.02 269.162C161.33 269.603 160.551 269.871 159.744 269.947L159.2 270.021C158.735 270.584 158.229 271.109 157.687 271.591Z" fill="black"/>
<path opacity="0.1" d="M157.959 269.196C158.185 269.198 158.41 269.215 158.634 269.247C158.988 268.857 159.336 268.439 159.69 268.032C158.689 267.755 157.64 267.72 156.625 267.931C155.609 268.142 154.654 268.592 153.833 269.247C153.012 269.903 152.347 270.745 151.89 271.71C151.433 272.675 151.197 273.735 151.198 274.81C151.198 275.047 151.198 275.279 151.231 275.511C151.398 273.78 152.179 272.175 153.423 271.008C154.666 269.841 156.283 269.195 157.959 269.196Z" fill="black"/>
</g>
<g opacity="0.1">
<path opacity="0.1" d="M125.772 271.591C125.097 271.546 124.422 271.472 123.752 271.371C122.945 271.293 122.166 271.022 121.477 270.58C120.712 271.164 120.075 271.908 119.606 272.765C119.137 273.621 118.847 274.57 118.755 275.55C118.729 275.305 118.716 275.058 118.717 274.81C118.712 273.713 118.955 272.631 119.428 271.649C119.901 270.668 120.59 269.816 121.439 269.162C122.129 269.603 122.907 269.871 123.714 269.947L124.258 270.021C124.72 270.587 125.226 271.112 125.772 271.591Z" fill="black"/>
<path opacity="0.1" d="M125.5 269.196C125.272 269.199 125.045 269.216 124.819 269.247C124.471 268.857 124.122 268.439 123.769 268.032C124.769 267.755 125.818 267.72 126.834 267.931C127.85 268.142 128.805 268.592 129.626 269.247C130.447 269.903 131.112 270.745 131.568 271.71C132.025 272.675 132.262 273.735 132.26 274.81C132.26 275.047 132.26 275.279 132.228 275.511C132.06 273.78 131.279 272.175 130.036 271.008C128.793 269.841 127.176 269.195 125.5 269.196Z" fill="black"/>
</g>
<path d="M107.155 338.41H53.9719C53.3728 338.41 52.7982 338.163 52.3745 337.724C51.9509 337.284 51.7129 336.688 51.7129 336.066V309.948C51.7128 309.553 51.8092 309.163 51.993 308.817C52.1769 308.47 52.4423 308.178 52.7645 307.966C53.0867 307.755 53.4553 307.632 53.8358 307.608C54.2163 307.584 54.5965 307.66 54.9409 307.83C70.2207 315.354 86.6818 317.935 106.11 307.949C106.454 307.772 106.836 307.69 107.219 307.709C107.603 307.728 107.976 307.848 108.302 308.058C108.629 308.267 108.899 308.559 109.086 308.907C109.274 309.254 109.374 309.646 109.376 310.044V336.027C109.381 336.335 109.327 336.64 109.218 336.927C109.109 337.213 108.947 337.475 108.741 337.696C108.535 337.917 108.289 338.094 108.016 338.217C107.744 338.34 107.451 338.405 107.155 338.41Z" fill="#007FFF"/>
<path opacity="0.1" d="M107.155 338.41H53.9719C53.3728 338.41 52.7982 338.163 52.3745 337.724C51.9509 337.284 51.7129 336.688 51.7129 336.066V309.948C51.7128 309.553 51.8092 309.163 51.993 308.817C52.1769 308.47 52.4423 308.178 52.7645 307.966C53.0867 307.755 53.4553 307.632 53.8358 307.608C54.2163 307.584 54.5965 307.66 54.9409 307.83C70.2207 315.354 86.6818 317.935 106.11 307.949C106.454 307.772 106.836 307.69 107.219 307.709C107.603 307.728 107.976 307.848 108.302 308.058C108.629 308.267 108.899 308.559 109.086 308.907C109.274 309.254 109.374 309.646 109.376 310.044V336.027C109.381 336.335 109.327 336.64 109.218 336.927C109.109 337.213 108.947 337.475 108.741 337.696C108.535 337.917 108.289 338.094 108.016 338.217C107.744 338.34 107.451 338.405 107.155 338.41Z" fill="#FF9901"/>
<path d="M80.1932 318.557C81.9309 318.557 83.3395 316.643 83.3395 314.282C83.3395 311.92 81.9309 310.006 80.1932 310.006C78.4555 310.006 77.0469 311.92 77.0469 314.282C77.0469 316.643 78.4555 318.557 80.1932 318.557Z" fill="#3F3D56"/>
<path d="M80.1932 313.333C81.9309 313.333 83.3395 311.419 83.3395 309.057C83.3395 306.696 81.9309 304.781 80.1932 304.781C78.4555 304.781 77.0469 306.696 77.0469 309.057C77.0469 311.419 78.4555 313.333 80.1932 313.333Z" fill="#3F3D56"/>
<path d="M80.1932 308.102C81.9309 308.102 83.3395 306.188 83.3395 303.827C83.3395 301.465 81.9309 299.551 80.1932 299.551C78.4555 299.551 77.0469 301.465 77.0469 303.827C77.0469 306.188 78.4555 308.102 80.1932 308.102Z" fill="#3F3D56"/>
<path d="M80.1932 302.878C81.9309 302.878 83.3395 300.963 83.3395 298.602C83.3395 296.241 81.9309 294.326 80.1932 294.326C78.4555 294.326 77.0469 296.241 77.0469 298.602C77.0469 300.963 78.4555 302.878 80.1932 302.878Z" fill="#3F3D56"/>
<path d="M80.1932 297.647C81.9309 297.647 83.3395 295.733 83.3395 293.372C83.3395 291.01 81.9309 289.096 80.1932 289.096C78.4555 289.096 77.0469 291.01 77.0469 293.372C77.0469 295.733 78.4555 297.647 80.1932 297.647Z" fill="#3F3D56"/>
<path d="M80.1932 292.417C81.9309 292.417 83.3395 290.503 83.3395 288.141C83.3395 285.78 81.9309 283.865 80.1932 283.865C78.4555 283.865 77.0469 285.78 77.0469 288.141C77.0469 290.503 78.4555 292.417 80.1932 292.417Z" fill="#3F3D56"/>
<path d="M80.1932 287.192C81.9309 287.192 83.3395 285.278 83.3395 282.916C83.3395 280.555 81.9309 278.641 80.1932 278.641C78.4555 278.641 77.0469 280.555 77.0469 282.916C77.0469 285.278 78.4555 287.192 80.1932 287.192Z" fill="#3F3D56"/>
<path d="M91.9945 247.139C92.4217 246.569 92.8126 245.971 93.1649 245.348L84.8908 243.936L93.8398 244.004C94.7032 242.063 95.1743 239.959 95.2239 237.822C95.2735 235.685 94.9007 233.56 94.1284 231.578L82.1255 238.039L93.1975 229.567C92.1608 227.706 90.7659 226.087 89.0999 224.811C87.4338 223.534 85.5323 222.627 83.5137 222.147C81.4951 221.666 79.4027 221.622 77.3669 222.017C75.3312 222.412 73.3956 223.237 71.6808 224.443C69.966 225.648 68.5088 227.206 67.3999 229.021C66.291 230.836 65.5542 232.869 65.2354 234.992C64.9166 237.116 65.0227 239.285 65.547 241.364C66.0712 243.443 67.0025 245.387 68.2827 247.077C67.6101 247.959 67.0332 248.916 66.5626 249.929L77.2971 255.781L65.8658 251.771C65.0646 254.236 64.8675 256.869 65.2923 259.433C65.7171 261.997 66.7504 264.41 68.2991 266.456C66.549 268.765 65.4604 271.538 65.1576 274.458C64.8548 277.379 65.3501 280.329 66.5869 282.971C67.8236 285.613 69.7519 287.841 72.1513 289.399C74.5506 290.958 77.3242 291.784 80.155 291.784C82.9857 291.784 85.7593 290.958 88.1586 289.399C90.558 287.841 92.4863 285.613 93.723 282.971C94.9598 280.329 95.4551 277.379 95.1523 274.458C94.8495 271.538 93.7609 268.765 92.0108 266.456C94.1017 263.698 95.2383 260.29 95.2383 256.781C95.2383 253.271 94.1017 249.864 92.0108 247.105L91.9945 247.139Z" fill="#51CC5D"/>
<path opacity="0.1" d="M65.044 256.815C65.039 260.325 66.1764 263.734 68.2719 266.49C66.5219 268.799 65.4333 271.572 65.1305 274.492C64.8277 277.413 65.323 280.363 66.5598 283.005C67.7965 285.647 69.7248 287.875 72.1242 289.433C74.5235 290.992 77.2971 291.818 80.1278 291.818C82.9586 291.818 85.7322 290.992 88.1315 289.433C90.5309 287.875 92.4592 285.647 93.6959 283.005C94.9327 280.363 95.428 277.413 95.1252 274.492C94.8224 271.572 93.7338 268.799 91.9837 266.49C94.0033 263.83 65.044 255.058 65.044 256.815Z" fill="black"/>
<path d="M107.155 339.794H53.9719C53.3728 339.794 52.7982 339.547 52.3745 339.108C51.9509 338.668 51.7129 338.072 51.7129 337.45V309.948C51.7128 309.553 51.8092 309.163 51.993 308.817C52.1769 308.47 52.4423 308.178 52.7645 307.966C53.0867 307.755 53.4553 307.632 53.8358 307.608C54.2163 307.584 54.5965 307.66 54.9409 307.83C70.2207 315.354 82.3379 324.126 106.11 307.949C107.519 306.988 109.376 308.299 109.376 310.044V337.439C109.379 338.056 109.147 338.649 108.731 339.09C108.316 339.531 107.749 339.784 107.155 339.794Z" fill="#FF9901"/>
<path d="M501.796 332.018L423.334 342.789L419.409 343.326L381.049 322.065V317.089L500.925 303.521L501.796 332.018Z" fill="#9C9CA1"/>
<path d="M403.28 324.324L488.28 313.926L487.409 330.21L421.2 335.248L403.28 324.324Z" fill="#939498"/>
<path opacity="0.4" d="M423.333 337.439V342.782L419.409 343.347L381.043 322.064V317.088L417.661 337.422C417.661 337.422 422.462 337.891 423.333 337.439Z" fill="black"/>
<path d="M438.396 252.63L420.781 337.384C420.603 338.233 420.625 339.113 420.844 339.951C421.064 340.789 421.474 341.56 422.041 342.198C422.608 342.837 423.315 343.325 424.102 343.62C424.889 343.916 425.732 344.011 426.562 343.897L538.006 328.59C538.977 328.457 539.892 328.043 540.647 327.396C541.402 326.748 541.965 325.894 542.274 324.929L566.318 249.693C566.583 248.858 566.649 247.969 566.51 247.102C566.371 246.235 566.031 245.416 565.519 244.715C565.006 244.015 564.338 243.454 563.571 243.082C562.803 242.709 561.96 242.535 561.114 242.576L443.252 248.383C442.105 248.439 441.008 248.886 440.131 249.653C439.253 250.421 438.643 251.467 438.396 252.63Z" fill="#3F3D56"/>
<path d="M499.632 283.896C499.906 281.197 498.773 278.861 497.101 278.679C495.43 278.496 493.853 280.537 493.58 283.236C493.307 285.935 494.44 288.271 496.111 288.453C497.783 288.635 499.359 286.595 499.632 283.896Z" fill="white"/>
</g>
<defs>
<clipPath id="clip0_3397_10">
<rect width="626" height="354.43" fill="white"/>
</clipPath>
</defs>
</svg>
