<svg width="534" height="403" viewBox="0 0 534 403" fill="none" xmlns="http://www.w3.org/2000/svg">
<g clip-path="url(#clip0_3412_324)">
<path d="M304.062 197.054C316.078 197.054 325.819 187.589 325.819 175.912C325.819 164.235 316.078 154.77 304.062 154.77C292.046 154.77 282.305 164.235 282.305 175.912C282.305 187.589 292.046 197.054 304.062 197.054Z" fill="#E6E6E6"/>
<path d="M357.384 203.082L334.648 180.987C336.39 178.353 337.571 175.406 338.121 172.32C338.67 169.234 338.576 166.072 337.845 163.022C337.114 159.972 335.76 157.096 333.864 154.564C331.968 152.031 329.568 149.895 326.807 148.28C321.607 145.262 315.43 144.251 309.5 145.448C303.57 146.645 298.318 149.963 294.786 154.744C291.536 159.173 289.975 164.563 290.371 169.989C290.768 175.416 293.097 180.538 296.959 184.476C300.821 188.414 305.974 190.921 311.532 191.567C317.09 192.213 322.707 190.958 327.415 188.016L350.152 210.11C351.111 211.041 352.411 211.564 353.767 211.564C355.123 211.563 356.423 211.04 357.382 210.108C358.341 209.176 358.88 207.913 358.88 206.595C358.88 205.278 358.342 204.014 357.384 203.082ZM326.566 180.163C323.749 182.9 320.042 184.604 316.077 184.984C312.112 185.363 308.134 184.395 304.822 182.244C301.509 180.093 299.066 176.892 297.91 173.188C296.753 169.483 296.954 165.503 298.479 161.926C300.003 158.349 302.757 155.396 306.271 153.571C309.785 151.746 313.841 151.161 317.749 151.917C321.656 152.672 325.173 154.72 327.701 157.713C330.228 160.706 331.61 164.458 331.61 168.33C331.613 170.528 331.169 172.704 330.303 174.735C329.438 176.766 328.168 178.61 326.566 180.163Z" fill="#4AC947"/>
<path d="M522.198 235.672C580.343 298.159 411.789 388.211 275.593 388.211C139.397 388.211 45.1702 318.436 28.9878 235.672C-10.2489 34.9958 363.294 -92.5528 275.593 83.1325C147.758 339.214 476.407 186.462 522.198 235.672Z" fill="#E6E6E6"/>
<path d="M496.109 250.461C554.254 312.948 385.7 403 249.504 403C113.308 403 19.0813 333.225 2.89895 250.461C-36.3377 49.7849 337.205 -77.7637 249.504 97.9215C121.67 354.003 450.318 201.251 496.109 250.461Z" fill="#3F3D56"/>
<path d="M81.3071 103.958C40.5065 102.212 8.87165 93.6596 9.28725 84.4872C9.53642 78.988 21.0834 74.566 40.9672 72.3554C41.0384 72.347 41.1105 72.3524 41.1795 72.3712C41.2485 72.3901 41.313 72.422 41.3693 72.4651C41.4256 72.5083 41.4725 72.5618 41.5074 72.6227C41.5423 72.6835 41.5644 72.7505 41.5726 72.8197C41.5807 72.8889 41.5747 72.959 41.5548 73.0259C41.535 73.0929 41.5017 73.1553 41.4569 73.2097C41.4122 73.2641 41.3567 73.3094 41.2939 73.3429C41.231 73.3763 41.162 73.3974 41.0907 73.4049C22.3602 75.4874 10.5899 79.7518 10.3732 84.5336C9.99739 92.8283 42.5029 101.24 81.3549 102.902C120.207 104.565 153.347 98.9618 153.723 90.6672C153.941 85.8652 142.528 80.5973 123.94 76.9198C123.87 76.9061 123.803 76.8791 123.743 76.8404C123.684 76.8016 123.633 76.7519 123.594 76.694C123.554 76.6361 123.527 76.5712 123.513 76.503C123.499 76.4347 123.5 76.3646 123.514 76.2965C123.528 76.2284 123.556 76.1637 123.596 76.1061C123.636 76.0485 123.688 75.9992 123.747 75.9609C123.807 75.9227 123.874 75.8962 123.944 75.8831C124.014 75.87 124.087 75.8705 124.157 75.8846C143.887 79.7881 155.059 85.193 154.809 90.7136C154.394 99.8861 122.108 105.704 81.3071 103.958Z" fill="#FFC657"/>
<path d="M45.0703 105.492C48.4835 111.793 53.5396 117.112 59.7328 120.918C65.9259 124.724 73.0389 126.882 80.3601 127.177C87.6812 127.473 94.9538 125.894 101.45 122.601C107.947 119.307 113.439 114.413 117.378 108.409C93.2385 108.725 69.0996 107.751 45.0703 105.492Z" fill="#FF7557"/>
<path d="M121.891 97.2991C123.945 91.3117 124.537 84.9419 123.62 78.6937C122.703 72.4456 120.302 66.4907 116.607 61.3002C112.911 56.1098 108.024 51.8264 102.331 48.7889C96.6376 45.7515 90.295 44.0434 83.805 43.7998C77.315 43.5563 70.8558 44.784 64.9385 47.3857C59.0212 49.9875 53.8083 53.8919 49.7123 58.79C45.6163 63.688 42.7497 69.4453 41.3394 75.6061C39.9291 81.7668 40.0137 88.1621 41.5866 94.2856C68.108 98.6607 95.1015 99.6736 121.891 97.2991Z" fill="#FF7557"/>
<path d="M91.7637 70.0363C94.4653 70.0363 96.6554 67.9081 96.6554 65.2828C96.6554 62.6575 94.4653 60.5293 91.7637 60.5293C89.0621 60.5293 86.8721 62.6575 86.8721 65.2828C86.8721 67.9081 89.0621 70.0363 91.7637 70.0363Z" fill="white"/>
<path d="M66.5883 88.5169C71.091 88.5169 74.7411 84.9699 74.7411 80.5944C74.7411 76.2189 71.091 72.6719 66.5883 72.6719C62.0857 72.6719 58.4355 76.2189 58.4355 80.5944C58.4355 84.9699 62.0857 88.5169 66.5883 88.5169Z" fill="white"/>
<path d="M189.636 80.7564C192.638 80.7564 195.071 78.3918 195.071 75.4749C195.071 72.558 192.638 70.1934 189.636 70.1934C186.635 70.1934 184.201 72.558 184.201 75.4749C184.201 78.3918 186.635 80.7564 189.636 80.7564Z" fill="#007FFF"/>
<path d="M66.8012 242.375C68.6023 242.375 70.0623 240.956 70.0623 239.206C70.0623 237.456 68.6023 236.037 66.8012 236.037C65.0001 236.037 63.54 237.456 63.54 239.206C63.54 240.956 65.0001 242.375 66.8012 242.375Z" fill="#E6E6E6"/>
<path d="M295.079 351.178C296.88 351.178 298.34 349.759 298.34 348.009C298.34 346.259 296.88 344.84 295.079 344.84C293.277 344.84 291.817 346.259 291.817 348.009C291.817 349.759 293.277 351.178 295.079 351.178Z" fill="#E6E6E6"/>
<path d="M82.5632 181.109C83.4638 181.109 84.1938 180.399 84.1938 179.524C84.1938 178.649 83.4638 177.939 82.5632 177.939C81.6627 177.939 80.9326 178.649 80.9326 179.524C80.9326 180.399 81.6627 181.109 82.5632 181.109Z" fill="#007FFF"/>
<path d="M217.356 299.417C218.257 299.417 218.987 298.708 218.987 297.833C218.987 296.957 218.257 296.248 217.356 296.248C216.456 296.248 215.726 296.957 215.726 297.833C215.726 298.708 216.456 299.417 217.356 299.417Z" fill="#FF7557"/>
<path d="M462.482 284.101C463.383 284.101 464.113 283.391 464.113 282.516C464.113 281.641 463.383 280.932 462.482 280.932C461.582 280.932 460.852 281.641 460.852 282.516C460.852 283.391 461.582 284.101 462.482 284.101Z" fill="#007FFF"/>
<path d="M385.846 331.109C386.747 331.109 387.477 330.399 387.477 329.524C387.477 328.649 386.747 327.939 385.846 327.939C384.946 327.939 384.216 328.649 384.216 329.524C384.216 330.399 384.946 331.109 385.846 331.109Z" fill="#E6E6E6"/>
<path d="M305.949 274.066C306.849 274.066 307.58 273.356 307.58 272.481C307.58 271.606 306.849 270.896 305.949 270.896C305.048 270.896 304.318 271.606 304.318 272.481C304.318 273.356 305.048 274.066 305.949 274.066Z" fill="#007FFF"/>
<path d="M202.68 117.728C203.581 117.728 204.311 117.018 204.311 116.143C204.311 115.268 203.581 114.559 202.68 114.559C201.78 114.559 201.05 115.268 201.05 116.143C201.05 117.018 201.78 117.728 202.68 117.728Z" fill="#FF7557"/>
<path d="M215.725 39.5597C216.626 39.5597 217.356 38.8503 217.356 37.9752C217.356 37.1 216.626 36.3906 215.725 36.3906C214.825 36.3906 214.095 37.1 214.095 37.9752C214.095 38.8503 214.825 39.5597 215.725 39.5597Z" fill="#E6E6E6"/>
<path d="M208.116 368.609C209.016 368.609 209.747 367.899 209.747 367.024C209.747 366.149 209.016 365.439 208.116 365.439C207.215 365.439 206.485 366.149 206.485 367.024C206.485 367.899 207.215 368.609 208.116 368.609Z" fill="#007FFF"/>
<path d="M127.676 335.333C128.576 335.333 129.306 334.624 129.306 333.749C129.306 332.873 128.576 332.164 127.676 332.164C126.775 332.164 126.045 332.873 126.045 333.749C126.045 334.624 126.775 335.333 127.676 335.333Z" fill="#E6E6E6"/>
<path d="M382.586 278.29C383.486 278.29 384.216 277.581 384.216 276.706C384.216 275.831 383.486 275.121 382.586 275.121C381.685 275.121 380.955 275.831 380.955 276.706C380.955 277.581 381.685 278.29 382.586 278.29Z" fill="#FF7557"/>
<path d="M80.6436 123.486C83.3452 123.486 85.5353 121.357 85.5353 118.732C85.5353 116.107 83.3452 113.979 80.6436 113.979C77.942 113.979 75.752 116.107 75.752 118.732C75.752 121.357 77.942 123.486 80.6436 123.486Z" fill="white"/>
<path d="M191.267 191.672C191.267 205.869 168.678 238.952 162.077 248.316C161.878 248.599 161.611 248.831 161.299 248.991C160.987 249.151 160.639 249.235 160.286 249.235C159.933 249.235 159.586 249.151 159.274 248.991C158.962 248.831 158.694 248.599 158.495 248.316C151.894 238.952 129.306 205.869 129.306 191.672C129.306 187.718 130.107 183.804 131.664 180.151C133.221 176.499 135.503 173.18 138.38 170.384C141.256 167.589 144.672 165.371 148.43 163.858C152.189 162.345 156.218 161.566 160.286 161.566C164.355 161.566 168.383 162.345 172.142 163.858C175.901 165.371 179.316 167.589 182.193 170.384C185.07 173.18 187.352 176.499 188.909 180.151C190.465 183.804 191.267 187.718 191.267 191.672Z" fill="#007FFF"/>
<path d="M160.286 204.876C168.992 204.876 176.049 198.018 176.049 189.559C176.049 181.1 168.992 174.242 160.286 174.242C151.581 174.242 144.524 181.1 144.524 189.559C144.524 198.018 151.581 204.876 160.286 204.876Z" fill="#3F3D56"/>
<path d="M160.015 265.614C170.07 265.614 178.222 264.077 178.222 262.181C178.222 260.285 170.07 258.748 160.015 258.748C149.959 258.748 141.807 260.285 141.807 262.181C141.807 264.077 149.959 265.614 160.015 265.614Z" fill="#007FFF"/>
<path d="M443.974 167.914C443.837 168.174 443.72 168.444 443.626 168.722L417.655 175.734L412.975 171.284L405.14 177.269L412.637 185.931C413.243 186.631 414.066 187.12 414.982 187.327C415.899 187.534 416.86 187.446 417.72 187.076L445.775 175.042C446.727 175.684 447.857 176.029 449.016 176.032C450.174 176.034 451.306 175.694 452.261 175.056C453.215 174.418 453.948 173.513 454.36 172.461C454.772 171.409 454.845 170.259 454.569 169.166C454.293 168.073 453.681 167.087 452.814 166.34C451.947 165.593 450.867 165.12 449.716 164.984C448.566 164.848 447.401 165.056 446.375 165.579C445.349 166.103 444.512 166.917 443.974 167.914H443.974Z" fill="#FFB8B8"/>
<path d="M416.74 176.146L406.992 183.519C406.715 183.729 406.394 183.878 406.052 183.957C405.71 184.035 405.354 184.041 405.01 183.974C404.665 183.907 404.339 183.769 404.055 183.569C403.77 183.368 403.533 183.111 403.36 182.813L397.302 172.394C396.205 171.009 395.718 169.258 395.948 167.524C396.178 165.791 397.106 164.217 398.529 163.148C399.951 162.078 401.752 161.601 403.536 161.82C405.321 162.039 406.943 162.936 408.047 164.316L416.927 172.552C417.181 172.788 417.38 173.074 417.51 173.392C417.64 173.709 417.698 174.05 417.68 174.391C417.663 174.732 417.57 175.065 417.407 175.368C417.245 175.671 417.017 175.937 416.74 176.146V176.146Z" fill="#007FFF"/>
<path d="M446.465 164.428L456.35 168.75C456.764 168.931 457.087 169.264 457.248 169.676C457.409 170.089 457.395 170.547 457.209 170.949L456.039 173.477C456.176 173.538 456.284 173.649 456.337 173.786C456.391 173.923 456.386 174.076 456.325 174.21L455.857 175.221C455.794 175.355 455.68 175.459 455.539 175.511C455.397 175.563 455.24 175.559 455.102 175.499L454.634 176.51C454.772 176.571 454.879 176.682 454.933 176.82C454.986 176.957 454.982 177.109 454.92 177.244L454.452 178.255C454.39 178.389 454.275 178.493 454.134 178.545C453.993 178.597 453.836 178.593 453.698 178.533L447.378 192.184C447.191 192.586 446.848 192.9 446.424 193.057C446 193.213 445.529 193.199 445.115 193.018L435.229 188.696C434.815 188.515 434.492 188.182 434.331 187.77C434.17 187.357 434.184 186.899 434.37 186.497L444.202 165.262C444.388 164.86 444.731 164.546 445.156 164.389C445.58 164.233 446.051 164.247 446.465 164.428Z" fill="#3F3D56"/>
<path d="M437.025 187.351L444.955 190.821C445.352 190.994 445.804 191.007 446.211 190.857C446.618 190.708 446.948 190.408 447.129 190.023L450.791 182.106L452.064 179.362L455.378 172.199C455.555 171.813 455.569 171.375 455.415 170.981C455.261 170.586 454.952 170.266 454.557 170.092L452.064 169L446.621 166.621C446.224 166.449 445.772 166.437 445.366 166.587C444.959 166.738 444.631 167.039 444.453 167.425L441.247 174.35L437.595 182.233L436.203 185.244C436.025 185.629 436.012 186.067 436.166 186.462C436.32 186.857 436.629 187.176 437.025 187.351Z" fill="#F2F2F2"/>
<path d="M420.453 285.445L427.117 285.445L430.287 260.469L420.452 260.469L420.453 285.445Z" fill="#FFB8B8"/>
<path d="M418.754 283.331L431.877 283.33H431.877C432.975 283.33 434.063 283.54 435.077 283.949C436.092 284.357 437.014 284.956 437.79 285.71C438.567 286.465 439.183 287.361 439.603 288.347C440.024 289.333 440.24 290.389 440.24 291.457V291.721L418.754 291.721L418.754 283.331Z" fill="#2F2E41"/>
<path d="M437.846 283.859L444.509 283.859L447.68 258.883L437.845 258.883L437.846 283.859Z" fill="#FFB8B8"/>
<path d="M436.146 281.747L449.269 281.746H449.27C450.368 281.746 451.455 281.956 452.47 282.365C453.485 282.773 454.406 283.372 455.183 284.126C455.96 284.881 456.576 285.777 456.996 286.763C457.416 287.749 457.632 288.805 457.632 289.873V290.137L436.147 290.137L436.146 281.747Z" fill="#2F2E41"/>
<path d="M390.564 226.836C391.984 230.926 394.677 234.485 398.27 237.022C401.863 239.559 406.179 240.948 410.62 240.996L410.957 241.001C414.397 241.097 418.436 240.019 422.398 238.472C430.224 235.413 437.741 230.517 439.736 229.171L436.356 260.75L434.986 273.553C434.951 273.884 434.988 274.218 435.095 274.535C435.201 274.851 435.375 275.142 435.604 275.39C435.834 275.637 436.114 275.835 436.427 275.97C436.74 276.106 437.078 276.177 437.421 276.178H445.862C446.403 276.178 446.929 276.004 447.358 275.683C447.786 275.362 448.094 274.912 448.231 274.403L462.167 222.827C462.585 221.283 462.619 219.665 462.265 218.106C461.912 216.547 461.181 215.093 460.134 213.863C459.087 212.633 457.754 211.663 456.245 211.033C454.735 210.403 453.093 210.132 451.454 210.241L422.507 212.169L424.528 204.31L398.69 202.641L398.614 202.693C397.994 203.132 397.391 203.591 396.815 204.072C395.374 205.256 394.097 206.616 393.015 208.118C391.08 210.813 389.846 213.924 389.419 217.184C388.992 220.444 389.385 223.756 390.564 226.836Z" fill="#415972"/>
<path d="M390.564 226.837C391.984 230.927 394.677 234.487 398.27 237.023C401.863 239.56 406.179 240.949 410.62 240.998C414.867 238.909 418.965 236.546 422.887 233.925L422.398 238.473L418.137 278.307C418.102 278.639 418.139 278.973 418.246 279.29C418.352 279.606 418.526 279.897 418.755 280.145C418.985 280.392 419.265 280.59 419.578 280.725C419.891 280.861 420.229 280.932 420.572 280.932H429.012C429.554 280.933 430.08 280.759 430.509 280.438C430.937 280.117 431.245 279.667 431.382 279.158L436.356 260.751L445.318 227.582C445.736 226.038 445.77 224.42 445.416 222.861C445.063 221.302 444.332 219.848 443.285 218.618C442.238 217.388 440.905 216.418 439.396 215.788C437.886 215.158 436.244 214.886 434.605 214.996L405.658 216.924L407.679 209.065L393.015 208.119C391.08 210.814 389.846 213.925 389.419 217.185C388.992 220.445 389.385 223.757 390.564 226.837Z" fill="#415972"/>
<path d="M396.777 205.896L396.583 205.873L392.074 184.332C392.036 184.145 388.35 165.564 399.649 155.85L399.846 154.521C399.896 154.181 400.022 153.855 400.214 153.567C400.407 153.278 400.661 153.034 400.96 152.85C401.259 152.666 401.596 152.548 401.946 152.503C402.297 152.458 402.653 152.487 402.991 152.589L413.636 155.798C414.239 155.978 414.746 156.378 415.052 156.914C415.358 157.449 415.438 158.079 415.277 158.672L414.242 162.497C415.677 164.134 432.567 183.894 426.683 199.117L424.049 209.127L396.777 205.896Z" fill="#007FFF"/>
<path d="M440.977 189.083C440.722 189.238 440.481 189.413 440.254 189.606L414.221 182.815L412.519 176.67L402.641 177.954L404.566 189.116C404.721 190.018 405.174 190.847 405.855 191.477C406.536 192.108 407.41 192.507 408.344 192.614L438.798 196.11C439.282 197.133 440.075 197.989 441.071 198.563C442.068 199.138 443.221 199.404 444.376 199.326C445.532 199.248 446.636 198.831 447.542 198.128C448.447 197.426 449.111 196.472 449.445 195.394C449.78 194.316 449.768 193.165 449.413 192.093C449.057 191.022 448.374 190.081 447.455 189.396C446.535 188.711 445.423 188.314 444.266 188.258C443.109 188.202 441.961 188.49 440.977 189.083H440.977Z" fill="#FFB8B8"/>
<path d="M413.219 182.718L400.967 184.251C400.619 184.295 400.265 184.265 399.929 184.164C399.593 184.062 399.284 183.892 399.022 183.664C398.761 183.436 398.552 183.156 398.412 182.843C398.272 182.53 398.203 182.191 398.209 181.849L398.443 169.884C398.223 168.149 398.72 166.401 399.825 165.022C400.93 163.643 402.552 162.746 404.337 162.528C406.121 162.31 407.921 162.788 409.343 163.858C410.765 164.928 411.693 166.502 411.922 168.236L415.26 179.715C415.356 180.044 415.377 180.388 415.323 180.726C415.269 181.063 415.141 181.386 414.947 181.671C414.753 181.956 414.499 182.197 414.201 182.377C413.902 182.558 413.567 182.674 413.219 182.718Z" fill="#007FFF"/>
<path d="M409.769 149.663C417.142 149.663 423.119 143.856 423.119 136.691C423.119 129.527 417.142 123.719 409.769 123.719C402.397 123.719 396.42 129.527 396.42 136.691C396.42 143.856 402.397 149.663 409.769 149.663Z" fill="#FFB8B8"/>
<path d="M409.067 137.776L407.396 134.819C404.23 147.353 409.822 157.727 409.822 157.727L388.118 147.903L388.325 144.417L386.177 146.785L383.091 145.133L382.684 142.872L380.354 143.432L388.857 128.439C397.109 114.172 409.106 119.619 409.106 119.619C428.192 118.737 425.861 137.035 425.861 137.035L409.067 137.776Z" fill="#2F2E41"/>
<path d="M257.106 234.447C260.184 232.53 256.441 221.52 248.746 209.855C241.051 198.19 232.318 190.289 229.24 192.206C226.162 194.123 229.905 205.134 237.6 216.798C245.295 228.463 254.029 236.365 257.106 234.447Z" fill="#3F3D56"/>
</g>
<defs>
<clipPath id="clip0_3412_324">
<rect width="534" height="403" fill="white"/>
</clipPath>
</defs>
</svg>
